<?xml version="1.0" standalone="no"?>
<!DOCTYPE svg PUBLIC "-//W3C//DTD SVG 20010904//EN"
 "http://www.w3.org/TR/2001/REC-SVG-20010904/DTD/svg10.dtd">
<svg version="1.0" xmlns="http://www.w3.org/2000/svg"
 width="124.000000pt" height="188.000000pt" viewBox="0 0 124.000000 188.000000"
 preserveAspectRatio="xMidYMid meet">
<metadata>
Created by potrace 1.10, written by Peter Selinger 2001-2011
</metadata>
<g transform="translate(0.000000,188.000000) scale(0.100000,-0.100000)"
fill="#000000" stroke="none">
<path d="M397 1860 c-85 -15 -322 -175 -359 -244 -7 -11 -15 -68 -19 -126 -6
-85 -3 -139 17 -285 13 -99 34 -211 45 -248 l22 -68 -21 -29 c-17 -23 -20 -34
-13 -57 5 -15 12 -68 15 -116 7 -102 22 -137 70 -165 26 -16 46 -42 77 -104
52 -106 181 -300 222 -335 18 -14 56 -37 85 -51 48 -21 64 -24 142 -20 78 4
94 8 145 39 75 45 156 133 194 211 27 55 53 153 75 281 6 30 11 37 30 37 27 0
74 43 82 77 4 12 10 23 15 23 5 0 9 10 9 23 l-1 22 -19 -24 c-11 -13 -20 -32
-20 -42 0 -14 -9 -21 -30 -25 -29 -6 -42 -24 -17 -24 13 0 -12 -20 -26 -20
-10 0 4 84 15 88 4 2 8 9 8 16 0 6 15 16 32 21 38 11 47 37 23 62 -16 15 -17
15 -13 -7 2 -18 -4 -28 -22 -37 -37 -19 -60 -54 -60 -96 0 -21 -7 -45 -15 -53
-8 -9 -15 -24 -15 -34 0 -10 -4 -21 -9 -24 -4 -3 -7 -18 -5 -33 4 -25 3 -26
-6 -8 -8 15 -9 10 -4 -22 4 -29 2 -43 -5 -43 -7 0 -11 -14 -9 -33 2 -37 -41
-149 -54 -141 -5 4 -8 0 -7 -7 5 -21 -20 -59 -37 -59 -8 0 -12 -5 -9 -10 7
-12 -33 -49 -53 -50 -7 0 -11 -4 -8 -9 3 -5 -8 -11 -25 -15 -17 -3 -28 -9 -25
-14 6 -11 -50 -44 -83 -49 -78 -11 -131 -4 -183 25 -29 16 -52 34 -51 40 2 6
-6 9 -17 7 -13 -3 -26 6 -41 28 l-21 32 26 -28 c18 -20 26 -23 26 -13 0 9 -5
16 -11 16 -6 0 -8 9 -4 23 3 12 3 17 -2 11 -6 -7 -16 -6 -33 3 -14 7 -20 13
-15 13 6 0 0 9 -13 20 -13 11 -21 24 -17 30 3 5 -1 10 -11 10 -14 0 -14 3 -4
15 11 13 10 14 -4 9 -10 -4 -18 0 -23 12 -4 11 -13 25 -20 32 -7 7 -13 19 -13
26 0 8 -7 19 -15 26 -18 15 -20 34 -3 23 7 -4 -1 10 -19 32 -18 21 -30 42 -27
46 2 5 -11 24 -31 44 -19 20 -33 41 -29 46 3 5 1 9 -5 9 -5 0 -11 -6 -14 -12
-6 -17 -13 -9 -21 25 -7 30 10 37 33 14 6 -6 3 6 -8 28 -10 22 -23 54 -28 70
-5 17 -15 29 -21 28 -7 -2 -12 6 -12 18 0 15 5 19 15 15 11 -4 10 3 -5 32 -17
30 -18 39 -7 47 8 6 12 16 9 24 -3 10 1 12 19 8 21 -5 22 -5 7 7 -9 7 -19 23
-22 37 -2 13 -9 37 -15 52 -6 15 -11 42 -11 60 0 95 -5 166 -11 150 -8 -20 -8
-21 -15 60 -3 37 -1 47 8 41 7 -4 5 2 -6 14 -10 12 -16 28 -12 37 3 9 0 26 -7
38 -8 12 -13 28 -12 35 2 6 3 15 4 20 1 4 5 1 10 -7 13 -20 12 56 -1 90 -12
33 4 97 32 129 11 13 20 20 20 17 0 -4 9 1 19 10 11 9 18 20 15 24 -2 4 9 13
26 21 16 7 30 16 30 20 0 5 7 8 15 8 8 0 15 -4 15 -10 0 -13 21 -9 38 8 20 19
37 15 21 -5 -13 -17 -12 -17 4 -4 18 14 18 15 -5 33 l-23 18 22 0 c12 0 25 5
28 10 3 6 14 10 25 10 10 0 20 6 23 13 3 8 31 19 64 26 71 15 257 21 297 10
20 -6 32 -5 37 2 4 7 12 8 19 4 9 -6 9 -10 -1 -17 -10 -7 -9 -8 5 -4 10 4 26
1 34 -6 10 -8 13 -9 9 -2 -4 8 2 11 17 10 13 0 22 -4 19 -8 -2 -5 4 -8 14 -8
10 0 29 -10 43 -21 14 -11 19 -17 11 -13 -9 5 -12 3 -7 -4 4 -7 13 -12 21 -12
7 0 16 -6 18 -12 4 -10 6 -10 6 0 1 18 21 5 21 -14 0 -8 -4 -13 -9 -9 -5 3
-12 1 -16 -4 -3 -6 3 -8 15 -6 11 2 33 -7 51 -23 29 -23 30 -27 13 -33 -14 -6
-15 -8 -3 -8 8 -1 27 -13 41 -28 19 -21 24 -33 18 -48 -5 -11 -9 -14 -9 -7 -1
6 -9 12 -18 12 -17 -1 -17 -2 0 -15 21 -15 51 -9 40 8 -3 6 -1 7 6 3 9 -6 9
-11 0 -23 -9 -10 -10 -16 -1 -21 16 -10 32 -59 26 -77 -4 -8 0 -17 9 -20 9 -4
14 -19 13 -46 -1 -34 -3 -38 -21 -33 -11 3 -15 2 -9 -3 14 -10 24 -63 13 -63
-5 0 -9 -7 -9 -15 0 -8 5 -15 11 -15 13 0 3 -71 -11 -80 -4 -3 -8 -18 -8 -35
1 -16 -2 -120 -6 -230 -5 -147 -3 -193 5 -175 6 14 9 37 6 53 -4 32 10 36 22
5 4 -13 10 -17 14 -11 10 16 -3 43 -19 43 -10 0 -14 14 -14 53 l0 52 40 2 c35
2 41 -1 46 -22 3 -14 4 -40 0 -58 -3 -17 -2 -45 3 -62 7 -23 9 -7 10 68 1 107
-4 116 -54 97 -15 -6 -29 -9 -30 -8 -2 2 1 41 6 88 34 318 36 351 27 401 -18
102 -76 204 -167 297 -109 112 -174 133 -406 131 -88 -1 -181 -5 -208 -9z
m-143 -121 c-30 -12 -37 -10 -24 5 6 8 19 12 27 9 14 -6 14 -8 -3 -14z m-127
-1101 c-3 -8 -6 -5 -6 6 -1 11 2 17 5 13 3 -3 4 -12 1 -19z"/>
<path d="M877 1779 c7 -7 15 -10 18 -7 3 3 -2 9 -12 12 -14 6 -15 5 -6 -5z"/>
<path d="M318 1773 c6 -2 18 -2 25 0 6 3 1 5 -13 5 -14 0 -19 -2 -12 -5z"/>
<path d="M500 1770 c-9 -6 -10 -10 -3 -10 6 0 15 5 18 10 8 12 4 12 -15 0z"/>
<path d="M758 1773 c7 -3 16 -2 19 1 4 3 -2 6 -13 5 -11 0 -14 -3 -6 -6z"/>
<path d="M318 1743 c7 -3 16 -2 19 1 4 3 -2 6 -13 5 -11 0 -14 -3 -6 -6z"/>
<path d="M888 1733 c6 -2 10 -9 6 -14 -9 -15 13 -10 26 6 11 13 8 15 -16 14
-16 0 -23 -3 -16 -6z"/>
<path d="M440 1719 c0 -5 5 -7 10 -4 6 3 10 8 10 11 0 2 -4 4 -10 4 -5 0 -10
-5 -10 -11z"/>
<path d="M670 1720 c-11 -7 -6 -9 17 -7 18 1 33 5 33 10 0 10 -32 9 -50 -3z"/>
<path d="M768 1723 c6 -2 18 -2 25 0 6 3 1 5 -13 5 -14 0 -19 -2 -12 -5z"/>
<path d="M352 1695 c-17 -38 -14 -43 8 -15 21 27 25 40 12 40 -5 0 -14 -11
-20 -25z"/>
<path d="M800 1700 c0 -5 10 -10 23 -10 18 0 19 2 7 10 -19 13 -30 13 -30 0z"/>
<path d="M210 1685 c0 -8 2 -15 4 -15 2 0 6 7 10 15 3 8 1 15 -4 15 -6 0 -10
-7 -10 -15z"/>
<path d="M570 1690 c0 -5 5 -10 10 -10 6 0 10 5 10 10 0 6 -4 10 -10 10 -5 0
-10 -4 -10 -10z"/>
<path d="M615 1690 c-3 -5 -1 -10 4 -10 6 0 11 5 11 10 0 6 -2 10 -4 10 -3 0
-8 -4 -11 -10z"/>
<path d="M441 1676 c-10 -12 -8 -13 8 -9 12 3 21 9 21 14 0 14 -16 11 -29 -5z"/>
<path d="M1010 1680 c0 -5 5 -10 11 -10 5 0 7 5 4 10 -3 6 -8 10 -11 10 -2 0
-4 -4 -4 -10z"/>
<path d="M387 1660 c-9 -11 -13 -20 -7 -20 5 0 14 9 20 20 6 11 9 20 8 20 -2
0 -11 -9 -21 -20z"/>
<path d="M140 1655 c-7 -9 -11 -18 -8 -20 3 -3 11 1 18 10 7 9 11 18 8 20 -3
3 -11 -1 -18 -10z"/>
<path d="M796 1651 c-4 -5 3 -7 14 -4 23 6 26 13 6 13 -8 0 -17 -4 -20 -9z"/>
<path d="M835 1642 c-3 -10 1 -11 18 -7 34 11 42 23 13 22 -14 -1 -28 -8 -31
-15z"/>
<path d="M467 1628 c-10 -11 -17 -22 -14 -24 6 -6 37 25 37 37 0 12 -2 11 -23
-13z"/>
<path d="M728 1643 c7 -3 16 -2 19 1 4 3 -2 6 -13 5 -11 0 -14 -3 -6 -6z"/>
<path d="M650 1630 c0 -5 5 -10 11 -10 5 0 7 5 4 10 -3 6 -8 10 -11 10 -2 0
-4 -4 -4 -10z"/>
<path d="M1031 1624 c0 -11 3 -14 6 -6 3 7 2 16 -1 19 -3 4 -6 -2 -5 -13z"/>
<path d="M705 1620 c3 -5 8 -10 11 -10 2 0 4 5 4 10 0 6 -5 10 -11 10 -5 0 -7
-4 -4 -10z"/>
<path d="M75 1609 c-4 -6 -5 -12 -2 -15 2 -3 7 2 10 11 7 17 1 20 -8 4z"/>
<path d="M127 1593 c-4 -3 -7 -18 -7 -31 0 -31 9 -24 16 12 4 27 2 31 -9 19z"/>
<path d="M915 1590 c-3 -5 -1 -10 4 -10 6 0 11 5 11 10 0 6 -2 10 -4 10 -3 0
-8 -4 -11 -10z"/>
<path d="M840 1580 c0 -5 5 -10 11 -10 5 0 7 5 4 10 -3 6 -8 10 -11 10 -2 0
-4 -4 -4 -10z"/>
<path d="M71 1564 c0 -11 3 -14 6 -6 3 7 2 16 -1 19 -3 4 -6 -2 -5 -13z"/>
<path d="M986 1561 c-4 -5 3 -7 14 -4 23 6 26 13 6 13 -8 0 -17 -4 -20 -9z"/>
<path d="M680 1541 c0 -5 18 -9 40 -9 23 -1 38 3 35 9 -8 12 -75 12 -75 0z"/>
<path d="M610 1525 c-10 -12 -10 -15 4 -15 9 0 16 7 16 15 0 8 -2 15 -4 15 -2
0 -9 -7 -16 -15z"/>
<path d="M820 1530 c0 -5 5 -10 11 -10 5 0 7 5 4 10 -3 6 -8 10 -11 10 -2 0
-4 -4 -4 -10z"/>
<path d="M1008 1533 c7 -3 16 -2 19 1 4 3 -2 6 -13 5 -11 0 -14 -3 -6 -6z"/>
<path d="M1045 1530 c-3 -5 -2 -10 4 -10 5 0 13 5 16 10 3 6 2 10 -4 10 -5 0
-13 -4 -16 -10z"/>
<path d="M130 1521 c0 -5 5 -13 10 -16 6 -3 10 -2 10 4 0 5 -4 13 -10 16 -5 3
-10 2 -10 -4z"/>
<path d="M892 1523 c-6 -2 -10 -9 -7 -13 7 -11 35 -2 35 11 0 10 -8 10 -28 2z"/>
<path d="M418 1503 c7 -3 16 -2 19 1 4 3 -2 6 -13 5 -11 0 -14 -3 -6 -6z"/>
<path d="M520 1500 c0 -5 7 -7 15 -4 8 4 15 8 15 10 0 2 -7 4 -15 4 -8 0 -15
-4 -15 -10z"/>
<path d="M835 1500 c-18 -7 -17 -8 10 -14 17 -4 39 -12 49 -18 15 -8 22 -7 30
3 6 8 19 15 30 16 13 1 15 -2 7 -10 -17 -17 -13 -37 7 -37 20 0 53 -58 59
-103 1 -16 8 -36 14 -45 8 -13 9 -7 4 23 -4 29 -3 36 4 25 9 -12 11 -12 11 -1
0 27 -61 111 -81 111 -16 0 -18 3 -9 19 5 11 10 22 10 25 0 10 -49 6 -55 -4
-6 -10 -56 -3 -65 10 -3 4 -14 4 -25 0z"/>
<path d="M1024 1480 c0 -11 4 -20 8 -20 4 0 8 9 8 20 0 11 -4 20 -8 20 -4 0
-8 -9 -8 -20z"/>
<path d="M270 1470 c0 -5 5 -10 10 -10 6 0 10 5 10 10 0 6 -4 10 -10 10 -5 0
-10 -4 -10 -10z"/>
<path d="M1111 1464 c0 -11 3 -14 6 -6 3 7 2 16 -1 19 -3 4 -6 -2 -5 -13z"/>
<path d="M1060 1451 c0 -6 4 -13 10 -16 6 -3 7 1 4 9 -7 18 -14 21 -14 7z"/>
<path d="M1113 1404 c0 -14 2 -21 6 -17 3 4 9 10 12 13 4 3 1 10 -6 17 -10 9
-12 6 -12 -13z"/>
<path d="M238 1403 c7 -3 16 -2 19 1 4 3 -2 6 -13 5 -11 0 -14 -3 -6 -6z"/>
<path d="M85 1377 c11 -9 17 -19 13 -23 -4 -4 -16 -1 -25 7 -17 13 -17 13 -4
-4 13 -16 13 -20 0 -28 -11 -7 -11 -9 4 -9 11 0 15 -4 11 -12 -4 -6 -3 -8 3
-5 12 7 38 66 32 71 -2 2 -15 7 -29 11 -24 7 -24 7 -5 -8z"/>
<path d="M1076 1371 c10 -10 21 -17 23 -15 6 6 -20 34 -32 34 -6 0 -2 -8 9
-19z"/>
<path d="M1070 1341 c0 -6 4 -13 10 -16 6 -3 7 1 4 9 -7 18 -14 21 -14 7z"/>
<path d="M1072 1285 c0 -16 2 -22 5 -12 2 9 2 23 0 30 -3 6 -5 -1 -5 -18z"/>
<path d="M1030 1258 c0 -7 5 -20 10 -28 8 -12 10 -11 10 7 0 12 -4 25 -10 28
-5 3 -10 0 -10 -7z"/>
<path d="M1037 1203 c-12 -18 3 -62 23 -68 11 -3 21 -21 26 -43 6 -29 8 -32
12 -14 4 28 -18 82 -35 82 -6 0 -13 12 -15 28 -2 17 -6 23 -11 15z"/>
<path d="M857 1089 c-9 -6 -22 -7 -27 -4 -6 3 -10 2 -10 -3 0 -6 17 -13 37
-17 46 -8 150 -60 156 -77 2 -7 7 -10 11 -7 11 11 -13 59 -29 59 -19 0 -72 24
-100 44 -14 11 -25 12 -38 5z"/>
<path d="M775 1060 c-3 -5 3 -10 14 -10 12 0 21 5 21 10 0 6 -6 10 -14 10 -8
0 -18 -4 -21 -10z"/>
<path d="M630 1045 c0 -5 5 -17 10 -25 5 -8 10 -10 10 -5 0 6 -5 17 -10 25 -5
8 -10 11 -10 5z"/>
<path d="M718 1042 c-29 -4 -37 -16 -15 -26 10 -5 10 -7 0 -12 -7 -3 -13 -10
-13 -15 0 -5 10 -4 21 3 16 10 23 10 26 2 3 -9 20 -8 66 3 34 8 79 14 100 15
20 0 37 2 37 4 0 16 -157 34 -222 26z m72 -22 c0 -5 -7 -7 -15 -4 -8 4 -15 8
-15 10 0 2 7 4 15 4 8 0 15 -4 15 -10z"/>
<path d="M242 1023 c-11 -10 -35 -29 -52 -42 -40 -31 -32 -37 16 -12 21 12 32
21 24 22 -8 0 0 7 18 15 18 8 30 19 27 24 -8 13 -8 13 -33 -7z"/>
<path d="M294 1008 c-5 -8 -2 -9 9 -5 11 4 17 1 17 -8 0 -17 21 -20 36 -5 6 6
15 6 24 0 16 -10 16 -10 -52 -15 -15 -1 -25 2 -22 6 3 5 -2 9 -10 9 -9 0 -16
-4 -16 -10 0 -5 -7 -10 -15 -10 -8 0 -15 -4 -15 -10 0 -5 27 -7 68 -3 37 3 81
6 97 8 50 4 51 5 20 24 -37 23 -131 36 -141 19z"/>
<path d="M536 1005 c-3 -8 -1 -15 4 -15 6 0 10 7 10 15 0 8 -2 15 -4 15 -2 0
-6 -7 -10 -15z"/>
<path d="M652 1000 c-14 -23 -15 -30 -3 -30 8 0 24 41 18 47 -2 1 -8 -7 -15
-17z"/>
<path d="M590 985 c-10 -12 -10 -15 4 -15 9 0 16 7 16 15 0 8 -2 15 -4 15 -2
0 -9 -7 -16 -15z"/>
<path d="M899 950 c49 -23 51 -23 51 -11 0 10 -54 31 -79 31 -9 0 4 -9 28 -20z"/>
<path d="M136 944 c-4 -9 -4 -19 -1 -22 2 -3 7 3 11 12 4 9 4 19 1 22 -2 3 -7
-3 -11 -12z"/>
<path d="M454 936 c0 -13 4 -22 7 -20 10 6 19 -22 20 -59 1 -31 1 -31 9 -7 5
16 8 19 9 8 1 -9 6 -20 13 -24 7 -4 8 -3 4 4 -4 7 -2 12 5 12 6 0 9 -8 6 -20
-3 -11 -1 -23 4 -26 11 -7 -1 -30 -33 -65 -21 -23 -23 -29 -11 -45 12 -17 13
-17 13 2 0 10 16 35 35 53 24 24 31 37 23 42 -7 4 -13 25 -15 46 -1 21 -7 39
-13 41 -5 2 -8 8 -5 12 3 5 -8 17 -25 27 -17 9 -28 23 -26 30 3 7 -1 13 -8 13
-8 0 -13 -10 -12 -24z"/>
<path d="M770 949 c-24 -9 -57 -59 -39 -59 5 0 9 -5 9 -11 0 -6 -9 -8 -22 -3
-35 10 -12 -8 25 -21 48 -16 65 -6 27 17 -27 16 -30 21 -19 34 7 8 21 20 31
25 18 9 18 8 8 -10 -13 -24 -4 -45 15 -37 9 3 12 -1 10 -13 -3 -15 4 -17 53
-16 33 0 57 6 60 13 6 20 -25 25 -50 8 -30 -22 -45 -20 -25 2 10 10 17 27 17
36 0 16 5 15 36 -9 26 -20 39 -24 47 -16 7 7 5 12 -9 17 -10 4 -22 12 -25 17
-4 5 -30 12 -59 15 -34 3 -47 8 -38 13 18 12 -19 10 -52 -2z m80 -44 c0 -8 -4
-15 -10 -15 -5 0 -10 7 -10 15 0 8 5 15 10 15 6 0 10 -7 10 -15z"/>
<path d="M160 911 c0 -25 6 -27 13 -6 4 8 2 17 -3 20 -6 4 -10 -3 -10 -14z"/>
<path d="M1170 920 c0 -5 5 -10 11 -10 5 0 7 5 4 10 -3 6 -8 10 -11 10 -2 0
-4 -4 -4 -10z"/>
<path d="M280 898 c-55 -12 -78 -31 -62 -51 7 -8 9 -17 5 -20 -3 -4 -1 -7 6
-7 9 0 11 8 7 24 -3 14 -1 28 6 32 6 4 8 3 5 -3 -4 -6 0 -17 9 -24 14 -11 15
-10 12 7 -2 14 3 20 22 21 14 1 19 0 13 -3 -20 -9 -15 -22 12 -40 24 -16 27
-16 46 2 14 13 18 25 14 42 -6 23 -6 23 19 5 31 -22 32 -30 7 -38 -31 -9 -47
-33 -32 -48 10 -9 11 -8 6 4 -5 12 3 20 27 29 18 7 39 12 46 11 16 -3 2 29
-23 49 -20 16 -86 20 -145 8z m80 -29 c0 -6 -8 -18 -17 -27 -16 -16 -16 -16
-10 1 4 10 7 25 7 33 0 9 5 12 10 9 6 -3 10 -11 10 -16z"/>
<path d="M1191 888 c-1 -23 -21 -34 -32 -17 -7 11 -9 11 -9 -3 0 -24 12 -28
33 -13 11 8 17 21 14 32 -4 15 -5 16 -6 1z"/>
<path d="M181 874 c0 -11 3 -14 6 -6 3 7 2 16 -1 19 -3 4 -6 -2 -5 -13z"/>
<path d="M730 826 c0 -8 5 -18 10 -21 6 -3 10 1 10 9 0 8 -4 18 -10 21 -5 3
-10 -1 -10 -9z"/>
<path d="M250 810 c0 -5 5 -10 11 -10 5 0 7 5 4 10 -3 6 -8 10 -11 10 -2 0 -4
-4 -4 -10z"/>
<path d="M280 810 c0 -5 14 -10 32 -10 36 0 35 4 -4 14 -17 4 -28 2 -28 -4z"/>
<path d="M399 794 l-24 -27 28 18 c15 9 27 21 27 26 0 14 -5 11 -31 -17z"/>
<path d="M1063 690 c0 -25 2 -35 4 -22 2 12 2 32 0 45 -2 12 -4 2 -4 -23z"/>
<path d="M521 684 c0 -11 3 -14 6 -6 3 7 2 16 -1 19 -3 4 -6 -2 -5 -13z"/>
<path d="M563 664 c-7 -7 -13 -19 -13 -26 0 -7 7 -2 16 10 18 26 16 37 -3 16z"/>
<path d="M613 665 c-17 -19 -16 -25 2 -25 8 0 15 9 15 20 0 23 -1 24 -17 5z"/>
<path d="M659 662 c5 -10 21 -24 34 -31 14 -7 28 -23 31 -35 5 -17 8 -18 16
-6 11 18 -30 76 -54 74 -9 -1 -16 2 -16 7 0 5 -5 9 -10 9 -7 0 -7 -6 -1 -18z"/>
<path d="M490 653 c0 -16 -2 -16 -11 -3 -8 12 -9 10 -4 -7 4 -16 2 -23 -8 -23
-20 0 -29 -40 -11 -47 8 -3 14 -13 14 -23 0 -16 27 -47 42 -50 33 -4 53 -30
24 -30 -8 0 -16 -7 -20 -15 -3 -8 -1 -15 5 -15 6 0 7 -4 4 -10 -3 -5 -1 -10 5
-10 6 0 10 7 8 16 -2 10 3 19 11 22 8 3 11 0 7 -7 -4 -6 -2 -11 4 -11 8 0 10
9 5 27 -9 37 -23 53 -46 53 -24 0 -42 36 -35 69 14 57 17 81 12 81 -3 0 -6 -8
-6 -17z"/>
<path d="M1155 660 c-3 -5 -1 -10 4 -10 6 0 11 5 11 10 0 6 -2 10 -4 10 -3 0
-8 -4 -11 -10z"/>
<path d="M1041 644 c0 -11 3 -14 6 -6 3 7 2 16 -1 19 -3 4 -6 -2 -5 -13z"/>
<path d="M513 589 c-8 -8 -7 -17 5 -31 31 -38 56 -58 71 -58 12 0 11 4 -5 19
-36 35 -55 62 -49 71 8 14 -9 12 -22 -1z"/>
<path d="M654 566 l-29 -25 34 9 c19 5 38 7 42 4 15 -9 10 13 -5 25 -11 9 -20
6 -42 -13z"/>
<path d="M1046 575 c4 -8 8 -15 10 -15 2 0 4 7 4 15 0 8 -4 15 -10 15 -5 0 -7
-7 -4 -15z"/>
<path d="M400 541 c0 -25 6 -27 13 -6 4 8 2 17 -3 20 -6 4 -10 -3 -10 -14z"/>
<path d="M1021 534 c0 -11 3 -14 6 -6 3 7 2 16 -1 19 -3 4 -6 -2 -5 -13z"/>
<path d="M617 474 c4 -11 -1 -22 -12 -30 -18 -13 -17 -14 7 -14 14 0 31 6 37
14 10 11 17 11 49 0 45 -16 65 -17 57 -4 -3 6 -1 10 5 10 6 0 13 -7 16 -15 4
-9 19 -15 42 -15 19 0 44 -7 54 -17 25 -22 23 2 -2 27 -21 21 -40 26 -40 10 0
-5 -15 1 -34 14 -39 26 -122 41 -142 26 -8 -8 -14 -8 -19 0 -10 16 -25 12 -18
-6z m118 -14 c3 -5 1 -10 -4 -10 -6 0 -11 5 -11 10 0 6 2 10 4 10 3 0 8 -4 11
-10z"/>
<path d="M483 400 c-10 -28 -10 -29 8 -20 10 6 19 20 19 30 0 29 -14 24 -27
-10z"/>
<path d="M409 396 c8 -10 9 -16 1 -21 -5 -3 -10 0 -10 7 0 10 -2 10 -9 -1 -5
-8 -7 -20 -4 -28 5 -12 8 -11 23 2 9 8 22 15 28 15 7 0 12 10 11 23 0 21 -1
21 -9 2 -7 -18 -8 -19 -15 -2 -4 9 -12 17 -17 17 -6 0 -6 -6 1 -14z"/>
<path d="M665 400 c3 -5 8 -10 11 -10 2 0 4 5 4 10 0 6 -5 10 -11 10 -5 0 -7
-4 -4 -10z"/>
<path d="M300 381 c0 -6 4 -13 10 -16 6 -3 7 1 4 9 -7 18 -14 21 -14 7z"/>
<path d="M793 383 c-23 -4 -37 -28 -27 -45 4 -5 13 -3 22 5 10 8 26 17 37 19
11 2 19 8 18 13 -2 12 -19 14 -50 8z"/>
<path d="M687 374 c-3 -4 -32 -7 -64 -9 -59 -2 -138 -21 -160 -38 -21 -16 -14
-29 8 -16 16 8 23 8 29 -1 4 -7 17 -9 34 -4 36 9 45 26 9 19 l-28 -6 25 15
c34 21 90 20 105 -1 11 -15 14 -15 36 0 13 10 19 17 14 17 -6 0 -3 4 5 10 9 6
17 5 21 -2 4 -6 15 -8 25 -4 16 6 16 8 4 16 -17 11 -54 13 -63 4z m-10 -30
c-3 -3 -12 -4 -19 -1 -8 3 -5 6 6 6 11 1 17 -2 13 -5z"/>
<path d="M724 314 c-18 -14 -18 -15 4 -4 12 6 22 13 22 15 0 8 -5 6 -26 -11z"/>
<path d="M537 278 c5 -10 54 -10 70 0 6 4 -8 7 -32 7 -24 0 -41 -3 -38 -7z"/>
<path d="M790 279 c0 -5 5 -7 10 -4 6 3 10 8 10 11 0 2 -4 4 -10 4 -5 0 -10
-5 -10 -11z"/>
<path d="M475 270 c3 -5 8 -10 11 -10 2 0 4 5 4 10 0 6 -5 10 -11 10 -5 0 -7
-4 -4 -10z"/>
<path d="M690 273 c-8 -2 -22 -7 -30 -10 -8 -3 -26 -5 -39 -4 -15 2 -21 -1
-16 -9 9 -15 83 -3 103 16 14 14 9 16 -18 7z"/>
<path d="M568 253 c7 -3 16 -2 19 1 4 3 -2 6 -13 5 -11 0 -14 -3 -6 -6z"/>
<path d="M635 190 c3 -5 8 -10 11 -10 2 0 4 5 4 10 0 6 -5 10 -11 10 -5 0 -7
-4 -4 -10z"/>
<path d="M580 151 c0 -5 5 -13 10 -16 6 -3 10 -2 10 4 0 5 -4 13 -10 16 -5 3
-10 2 -10 -4z"/>
<path d="M515 90 c-3 -5 -1 -10 4 -10 6 0 11 5 11 10 0 6 -2 10 -4 10 -3 0 -8
-4 -11 -10z"/>
</g>
</svg>
